<svg width="50" height="150" viewBox="0 0 50 150" fill="none" xmlns="http://www.w3.org/2000/svg">
<mask id="path-1-inside-1" fill="white">
<path d="M49.4973 124.699L24.7983 149.497L-2.68817e-05 124.798L49.4973 124.699Z"/>
</mask>
<path d="M24.7983 149.497L-45.0646 219.641L25.0794 289.504L94.9423 219.36L24.7983 149.497ZM49.4973 124.699L119.641 194.562L288.305 25.2194L49.2986 25.6991L49.4973 124.699ZM-2.68817e-05 124.798L-0.198752 25.7985L-239.205 26.2783L-69.8629 194.942L-2.68817e-05 124.798ZM94.9423 219.36L119.641 194.562L-20.6466 54.836L-45.3456 79.6344L94.9423 219.36ZM49.2986 25.6991L-0.198752 25.7985L0.198699 223.798L49.6961 223.699L49.2986 25.6991ZM-69.8629 194.942L-45.0646 219.641L94.6613 79.3534L69.8629 54.6544L-69.8629 194.942Z" fill="#2A2727" mask="url(#path-1-inside-1)"/>
<mask id="path-3-inside-2" fill="white">
<path d="M49.4973 99.6989L24.7983 124.497L-2.68817e-05 99.7983L49.4973 99.6989Z"/>
</mask>
<path d="M24.7983 124.497L-45.0646 194.641L25.0794 264.504L94.9423 194.36L24.7983 124.497ZM49.4973 99.6989L119.641 169.562L288.305 0.219381L49.2986 0.699147L49.4973 99.6989ZM-2.68817e-05 99.7983L-0.198752 0.798504L-239.205 1.27827L-69.8629 169.942L-2.68817e-05 99.7983ZM94.9423 194.36L119.641 169.562L-20.6466 29.836L-45.3456 54.6344L94.9423 194.36ZM49.2986 0.699147L-0.198752 0.798504L0.198699 198.798L49.6961 198.699L49.2986 0.699147ZM-69.8629 169.942L-45.0646 194.641L94.6613 54.3534L69.8629 29.6544L-69.8629 169.942Z" fill="#2A2727" mask="url(#path-3-inside-2)"/>
<mask id="path-5-inside-3" fill="white">
<path d="M49.4973 74.6989L24.7983 99.4973L-2.68817e-05 74.7983L49.4973 74.6989Z"/>
</mask>
<path d="M24.7983 99.4973L-45.0646 169.641L25.0794 239.504L94.9423 169.36L24.7983 99.4973ZM49.4973 74.6989L119.641 144.562L288.305 -24.7806L49.2986 -24.3009L49.4973 74.6989ZM-2.68817e-05 74.7983L-0.198752 -24.2015L-239.205 -23.7217L-69.8629 144.942L-2.68817e-05 74.7983ZM94.9423 169.36L119.641 144.562L-20.6466 4.83604L-45.3456 29.6344L94.9423 169.36ZM49.2986 -24.3009L-0.198752 -24.2015L0.198699 173.798L49.6961 173.699L49.2986 -24.3009ZM-69.8629 144.942L-45.0646 169.641L94.6613 29.3534L69.8629 4.65435L-69.8629 144.942Z" fill="#2A2727" mask="url(#path-5-inside-3)"/>
<mask id="path-7-inside-4" fill="white">
<path d="M49.4969 49.6989L24.7979 74.4973L-0.000515163 49.7983L49.4969 49.6989Z"/>
</mask>
<path d="M24.7979 74.4973L-45.0651 144.641L25.0789 214.504L94.9418 144.36L24.7979 74.4973ZM49.4969 49.6989L119.641 119.562L288.305 -49.7806L49.2981 -49.3009L49.4969 49.6989ZM-0.000515163 49.7983L-0.199241 -49.2015L-239.206 -48.7217L-69.8634 119.942L-0.000515163 49.7983ZM94.9418 144.36L119.641 119.562L-20.6471 -20.164L-45.3461 4.6344L94.9418 144.36ZM49.2981 -49.3009L-0.199241 -49.2015L0.19821 148.798L49.6956 148.699L49.2981 -49.3009ZM-69.8634 119.942L-45.0651 144.641L94.6608 4.35336L69.8624 -20.3456L-69.8634 119.942Z" fill="#2A2727" mask="url(#path-7-inside-4)"/>
<mask id="path-9-inside-5" fill="white">
<path d="M49.4969 24.6989L24.7979 49.4973L-0.000515163 24.7983L49.4969 24.6989Z"/>
</mask>
<path d="M24.7979 49.4973L-45.0651 119.641L25.0789 189.504L94.9418 119.36L24.7979 49.4973ZM49.4969 24.6989L119.641 94.5619L288.305 -74.7806L49.2981 -74.3009L49.4969 24.6989ZM-0.000515163 24.7983L-0.199241 -74.2015L-239.206 -73.7217L-69.8634 94.9423L-0.000515163 24.7983ZM94.9418 119.36L119.641 94.5619L-20.6471 -45.164L-45.3461 -20.3656L94.9418 119.36ZM49.2981 -74.3009L-0.199241 -74.2015L0.19821 123.798L49.6956 123.699L49.2981 -74.3009ZM-69.8634 94.9423L-45.0651 119.641L94.6608 -20.6466L69.8624 -45.3456L-69.8634 94.9423Z" fill="#2A2727" mask="url(#path-9-inside-5)"/>
</svg>
