<svg width="104" height="161" viewBox="0 0 104 161" fill="none" xmlns="http://www.w3.org/2000/svg">
<path d="M52 107C80.7188 107 104 107 104 107C104 136.823 80.7188 161 52 161C23.2812 161 -1.05679e-06 136.823 -2.36041e-06 107C-2.36041e-06 107 23.2812 107 52 107Z" fill="#426651"/>
<path d="M52 54C80.7188 54 104 54 104 54C104 83.2711 80.7188 107 52 107C23.2812 107 -1.03722e-06 83.2711 -2.3167e-06 54C-2.3167e-06 54 23.2812 54 52 54Z" fill="#426651"/>
<path d="M52 1.54171e-06C80.7188 2.86366e-07 104 -7.31287e-07 104 -7.31287e-07C104 29.8234 80.7188 54 52 54C23.2812 54 -1.05679e-06 29.8234 -2.36041e-06 3.8147e-06C-2.36041e-06 3.8147e-06 23.2812 2.79704e-06 52 1.54171e-06Z" fill="#426651"/>
</svg>
